<svg xmlns="http://www.w3.org/2000/svg" xmlns:xlink="http://www.w3.org/1999/xlink" fill="none" version="1.1" width="18.000019073486328" height="21.0000057220459" viewBox="0 0 18.000019073486328 21.0000057220459"><g><path d="M9.00002,0C11.7614,0,14,2.23857,14,5L14,7L17,7C17.5523,7,18,7.44771,18,8L18,20C18,20.5523,17.5523,21,17,21L1,21C0.44772,21,0,20.5523,0,20L0,8C0,7.44771,0.44772,7,1,7L4,7L4,5C4,2.23857,6.23858,0,9.00002,0ZM14,10L12,10L12,11C12,11.5523,12.4477,12,13,12C13.5128,12,13.9355,11.614,13.9933,11.1166L14,11L14,10ZM6,10L4,10L4,11C4,11.5523,4.44772,12,5,12C5.51284,12,5.93551,11.614,5.99327,11.1166L6,11L6,10ZM9.00002,1.99999C7.40232,1.99999,6.09634,3.24891,6.0051,4.82373L6,5L6,7L12,7L12,5C12,3.40231,10.7511,2.09633,9.17632,2.0051L9.00002,1.99999Z" fill="#4F46E5" fill-opacity="1" style="mix-blend-mode:passthrough"/></g></svg>