<svg xmlns="http://www.w3.org/2000/svg" xmlns:xlink="http://www.w3.org/1999/xlink" fill="none" version="1.1" width="16" height="16" viewBox="0 0 16 16"><defs><clipPath id="master_svg0_204_2543"><rect x="0" y="0" width="16" height="16" rx="0"/></clipPath></defs><g clip-path="url(#master_svg0_204_2543)"><rect x="0" y="0" width="16" height="16" rx="0" fill="#FFFFFF" fill-opacity="1"/><g><path d="M10.7,3C12.5226,3,14,4.62162,14,6.89189Q14,9.16216,11.5625,12.28378Q8.75,14.5135,8,15C6.5,14.027,2,11.43243,2,6.89189C2,4.62162,3.5,3,5.3,3C6.41598,3,7.4,3.648649,8,4.2973C8.6,3.648649,9.584,3,10.7,3Z" fill="#FFFFFF" fill-opacity="1" style="mix-blend-mode:passthrough"/><path d="M8.2721,15.4195Q9.04202,14.9201,11.87312,12.67559L11.91987,12.63853L11.95659,12.59151Q14.5,9.334240000000001,14.5,6.89189Q14.5,5.02356,13.4113,3.767166Q12.3133,2.5,10.7,2.5Q9.211079999999999,2.5,8,3.594154Q6.78892,2.5,5.3,2.5Q3.7003,2.5,2.597888,3.766286Q1.5,5.0273699999999995,1.5,6.89189Q1.5,9.85852,3.8484100000000003,12.39061Q5.10671,13.7473,7.44677,15.2393Q7.6441,15.3651,7.7279,15.4195L8,15.596L8.2721,15.4195ZM11.20488,11.92923Q13.5,8.973600000000001,13.5,6.89189Q13.5,5.39654,12.6556,4.42202Q11.85666,3.5,10.7,3.5Q9.418610000000001,3.5,8.367049999999999,4.63682L8,5.0336300000000005L7.63295,4.63682Q6.58139,3.5,5.3,3.5Q4.1555800000000005,3.5,3.3521099999999997,4.4229Q2.5,5.40168,2.5,6.89189Q2.500001,9.46617,4.5816099999999995,11.71059Q5.75258,12.97315,7.98437,14.3961Q7.98793,14.3984,7.99145,14.4006Q8.865739999999999,13.7829,11.20488,11.92923Z" fill-rule="evenodd" fill="#A6A6A6" fill-opacity="1"/></g></g></svg>