<svg xmlns="http://www.w3.org/2000/svg" xmlns:xlink="http://www.w3.org/1999/xlink" fill="none" version="1.1" width="14" height="14" viewBox="0 0 14 14"><defs><clipPath id="master_svg0_60_9762"><rect x="0" y="0" width="14" height="14" rx="0"/></clipPath></defs><g clip-path="url(#master_svg0_60_9762)"><g transform="matrix(1,0,0,-1,0,26.8515625)"><g><path d="M1.3125,18.34766125L6.23438,13.72656225L1.3125,18.34766125L6.23438,13.72656225Q6.5625,13.42578125,7,13.42578125Q7.4375,13.42578125,7.76562,13.72656225L12.6875,18.34766125Q13.9727,19.55078125,14,21.32812125L14,21.492191249999998Q13.9727,22.96875125,13.0703,24.00778125Q12.168,25.074181250000002,10.7461,25.34768125Q9.78906,25.48438125,8.88672,25.21098125Q8.01172,24.937481249999998,7.32812,24.25388125L7,23.92578125L6.67188,24.25388125Q5.98828,24.937481249999998,5.11328,25.21098125Q4.21094,25.48438125,3.25391,25.34768125Q1.83203,25.074181250000002,0.929688,24.00778125Q0.0273438,22.96875125,0,21.492191249999998L0,21.32812125Q0.0273438,19.55078125,1.3125,18.34766125Z" fill="#4F46E5" fill-opacity="1" style="mix-blend-mode:passthrough"/></g></g></g></svg>