<svg xmlns="http://www.w3.org/2000/svg" xmlns:xlink="http://www.w3.org/1999/xlink" fill="none" version="1.1" viewBox="0 0 16 16"><defs><clipPath id="master_svg0_204_2533"><rect x="0" y="0" width="16" height="16" rx="0"/></clipPath></defs><g clip-path="url(#master_svg0_204_2533)"><g><path d="M6.8,2L9.2,2C11.85098,2,14,4.204140000000001,14,6.92308C14,9.64203,11.85098,11.84615,9.2,11.84615L9.2,14C6.2,12.7692,2,10.92308,2,6.92308C2,4.204140000000001,4.14903,2,6.8,2Z" fill="#FFFFFF" fill-opacity="1" style="mix-blend-mode:passthrough"/><path d="M3.0478899999999998,3.0928899999999997Q1.5,4.68046,1.5,6.92308Q1.5,9.806339999999999,4.1668199999999995,11.89373Q5.7288499999999996,13.1164,9.01022,14.4626L9.7,14.7456L9.7,12.3249Q11.57867,12.1619,12.9521,10.75327Q14.5,9.165700000000001,14.5,6.92308Q14.5,4.68046,12.9521,3.0928899999999997Q11.39906,1.5,9.2,1.5L6.8,1.5Q4.60095,1.5,3.0478899999999998,3.0928899999999997ZM4.78318,11.10627Q2.500001,9.31916,2.5,6.92308Q2.5,5.08728,3.76389,3.79099Q5.022600000000001,2.5,6.8,2.5L9.2,2.5Q10.97741,2.5,12.2361,3.79099Q13.5,5.08728,13.5,6.92308Q13.5,8.758880000000001,12.2361,10.05517Q10.97741,11.34615,9.2,11.34615L8.7,11.34615L8.7,13.2475Q6.07243,12.1154,4.78318,11.10627Z" fill-rule="evenodd" fill="#A6A6A6" fill-opacity="1"/></g></g></svg>