<svg xmlns="http://www.w3.org/2000/svg" xmlns:xlink="http://www.w3.org/1999/xlink" fill="none" version="1.1" width="24" height="24" viewBox="0 0 24 24"><defs><clipPath id="master_svg0_204_2729"><rect x="0" y="0" width="24" height="24" rx="0"/></clipPath></defs><g clip-path="url(#master_svg0_204_2729)"><g><path d="M20,5C20,6.65685,18.6569,8,17,8C15.3431,8,14,6.65685,14,5C14,3.34315,15.3431,2,17,2C18.6569,2,20,3.34315,20,5ZM7,3C4.79086,3,3,4.79086,3,7L3,9L5,9L5,7C5,5.89543,5.89543,5,7,5L10,5L10,3L7,3ZM17,21C19.2091,21,21,19.2091,21,17L21,15L19,15L19,17C19,18.1046,18.104599999999998,19,17,19L14,19L14,21L17,21ZM7,16C8.65685,16,10,14.6569,10,13C10,11.3431,8.65685,10,7,10C5.34315,10,4,11.3431,4,13C4,14.6569,5.34315,16,7,16ZM17,9C14.7909,9,13,10.7909,13,13L21,13C21,10.7909,19.2091,9,17,9ZM3,21C3,18.7909,4.79086,17,7,17C9.20914,17,11,18.7909,11,21L3,21Z" fill="#4F46E5" fill-opacity="1" style="mix-blend-mode:passthrough"/></g></g></svg>