<svg xmlns="http://www.w3.org/2000/svg" width="24" height="24" viewBox="0 0 24 24"><path d="M16.928 10.323c-.341-.034-.682-.034-.99-.034-.413 0-.825.034-1.238.068.375-.542.576-1.187.576-1.896 0-1.727-1.12-3.13-2.502-3.13s-2.502 1.403-2.502 3.13c0 .71.201 1.354.576 1.896-.413-.034-.825-.068-1.238-.068-.307 0-.65.034-.99.034C6.012 10.323 5 11.41 5 12.973c0 1.282.742 2.368 1.815 2.777-.034.136-.068.272-.068.442 0 1.623 2.043 2.94 4.562 2.94s4.562-1.317 4.562-2.94c0-.17-.034-.306-.068-.442C18.258 15.34 19 14.255 19 12.973c0-1.562-1.012-2.65-2.072-2.65z"></path></svg>