<svg xmlns="http://www.w3.org/2000/svg" xmlns:xlink="http://www.w3.org/1999/xlink" fill="none" version="1.1" width="24" height="24" viewBox="0 0 24 24"><defs><clipPath id="master_svg0_204_2739"><rect x="0" y="0" width="24" height="24" rx="0"/></clipPath></defs><g clip-path="url(#master_svg0_204_2739)"><g><path d="M23,18.999893001747132L22,18.999893001747132L22,8.999913001747132L18,8.999913001747132L18,6.585693001747131L12,0.5856930017471313L6,6.585693001747131L6,8.999913001747132L2,8.999913001747132L2,18.999893001747132L1,18.999893001747132L1,20.999893001747132L23,20.999893001747132L23,18.999893001747132ZM6,18.999993001747132L4,18.999993001747132L4,10.999993001747132L6,10.999993001747132L6,18.999993001747132ZM18,10.999993001747132L20,10.999993001747132L20,18.999993001747132L18,18.999993001747132L18,10.999993001747132ZM11,11.999993001747132L13,11.999993001747132L13,18.999993001747132L11,18.999993001747132L11,11.999993001747132Z" fill="#4F46E5" fill-opacity="1" style="mix-blend-mode:passthrough"/></g></g></svg>