<svg xmlns="http://www.w3.org/2000/svg" xmlns:xlink="http://www.w3.org/1999/xlink" fill="none" version="1.1" width="18" height="18" viewBox="0 0 18 18"><defs><clipPath id="master_svg0_204_2719"><rect x="0" y="0" width="18" height="18" rx="0"/></clipPath></defs><g clip-path="url(#master_svg0_204_2719)"><g><path d="M14.0233,11.9626L17.235300000000002,15.1746L16.174599999999998,16.235300000000002L12.9626,13.0233C11.80768,13.9473,10.343,14.5,8.75,14.5C5.024,14.5,2,11.476,2,7.75C2,4.024,5.024,1,8.75,1C12.476,1,15.5,4.024,15.5,7.75C15.5,9.343,14.9473,10.80767,14.0233,11.9626ZM9.63343,4.88218C9.35413,4.796250000000001,9.057500000000001,4.75,8.75,4.75C7.09315,4.75,5.75,6.09315,5.75,7.75C5.75,9.40683,7.09315,10.75,8.75,10.75C10.40683,10.75,11.75,9.40683,11.75,7.75C11.75,7.4425,11.70372,7.14587,11.61785,6.86659C11.38265,7.38745,10.85863,7.75,10.25,7.75C9.42155,7.75,8.75,7.07845,8.75,6.25C8.75,5.64135,9.112549999999999,5.11736,9.63343,4.88218Z" fill="#A6A6A6" fill-opacity="1" style="mix-blend-mode:passthrough"/></g></g></svg>