<svg xmlns="http://www.w3.org/2000/svg" xmlns:xlink="http://www.w3.org/1999/xlink" fill="none" version="1.1" width="16" height="16" viewBox="0 0 16 16"><defs><clipPath id="master_svg0_204_2510"><rect x="0" y="0" width="16" height="16" rx="0"/></clipPath></defs><g clip-path="url(#master_svg0_204_2510)"><g><path d="M12.383527880859376,9.14093C12.716127880859375,9.14093,12.982227880859375,8.8582,12.982227880859375,8.54227C12.982227880859375,8.20967,12.716127880859375,7.94367,12.383527880859376,7.94367C12.051027880859374,7.94367,11.784927880859374,8.20967,11.784927880859374,8.54227C11.784927880859374,8.87487,12.051027880859374,9.14093,12.383527880859376,9.14093ZM9.433137880859375,9.14093C9.765677880859375,9.14093,10.031737880859374,8.8582,10.031737880859374,8.54227C10.031737880859374,8.20967,9.765677880859375,7.94367,9.433137880859375,7.94367C9.100537880859376,7.94367,8.834477880859374,8.20967,8.834477880859374,8.54227C8.834477880859374,8.87487,9.100537880859376,9.14093,9.433137880859375,9.14093ZM13.811327880859375,12.5011C13.729427880859374,12.5502,13.680327880859375,12.6321,13.696727880859376,12.7468C13.696727880859376,12.7795,13.696727880859376,12.8123,13.713027880859375,12.8451C13.778627880859375,13.1236,13.909527880859375,13.566,13.909527880859375,13.5824C13.909527880859375,13.6315,13.925927880859374,13.6643,13.925927880859374,13.6971C13.925927880859374,13.779,13.860427880859374,13.8445,13.778627880859375,13.8445C13.745827880859375,13.8445,13.729427880859374,13.8281,13.696727880859376,13.8117L12.730727880859375,13.2547C12.665227880859375,13.2219,12.583327880859375,13.1891,12.501427880859374,13.1891C12.452427880859375,13.1891,12.403227880859376,13.1891,12.370527880859376,13.2055C11.912027880859375,13.3366,11.437227880859375,13.4021,10.929727880859375,13.4021C8.490137880859375,13.4021,6.525437880859375,11.76373,6.525437880859375,9.732199999999999C6.525437880859375,7.7006,8.490137880859375,6.06219,10.929727880859375,6.06219C13.369227880859375,6.06219,15.334027880859376,7.7006,15.334027880859376,9.732199999999999C15.334027880859376,10.82987,14.744527880859374,11.82927,13.811327880859375,12.5011ZM11.115827880859374,5.3983799999999995C11.054027880859374,5.39649,10.992027880859375,5.39553,10.929727880859375,5.39553C8.146607880859374,5.39553,5.858777880859375,7.3024,5.858777880859375,9.732199999999999C5.858777880859375,10.10127,5.911557880859375,10.45827,6.010847880859375,10.79833L5.951417880859375,10.79833C5.360647880859375,10.79833,4.769877880859375,10.7002,4.228337880859375,10.55307C4.1791178808593745,10.53667,4.129877880859375,10.53667,4.080657880859375,10.53667C3.982187880859375,10.53667,3.883727880859375,10.5694,3.801677880859375,10.61847L2.636557880859375,11.28893C2.603737880859375,11.30533,2.570907880859375,11.32167,2.5380878808593748,11.32167C2.439627880859375,11.32167,2.357577880859375,11.23993,2.357577880859375,11.1418C2.357577880859375,11.09273,2.3739878808593753,11.06,2.390397880859375,11.01093C2.406807880859375,10.9946,2.5544978808593752,10.45493,2.636557880859375,10.12787C2.636557880859375,10.09513,2.652957880859375,10.04607,2.652957880859375,10.0134C2.652957880859375,9.88253,2.5873178808593753,9.7844,2.5052678808593747,9.719000000000001C1.372967880859375,8.917670000000001,0.667328119278375,7.72387,0.667328119278375,6.39917C0.667328119278375,3.96246,3.046807880859375,2,5.967827880859375,2C8.477137880859374,2,10.586807880859375,3.44571,11.115827880859374,5.3983799999999995ZM7.679937880859375,5.67736C8.061807880859375,5.67736,8.364137880859374,5.35914,8.364137880859374,4.9932C8.364137880859374,4.61134,8.061807880859375,4.3090399999999995,7.679937880859375,4.3090399999999995C7.298077880859375,4.3090399999999995,6.995807880859375,4.61134,6.995807880859375,4.9932C6.995807880859375,5.37505,7.298077880859375,5.67736,7.679937880859375,5.67736ZM4.173637880859375,5.67736C4.555497880859376,5.67736,4.857797880859375,5.35914,4.857797880859375,4.9932C4.857797880859375,4.61134,4.555497880859376,4.3090399999999995,4.173637880859375,4.3090399999999995C3.791787880859375,4.3090399999999995,3.489477880859375,4.61134,3.489477880859375,4.9932C3.489477880859375,5.37505,3.791787880859375,5.67736,4.173637880859375,5.67736Z" fill="#4F46E5" fill-opacity="1" style="mix-blend-mode:passthrough"/></g></g></svg>