<svg xmlns="http://www.w3.org/2000/svg" xmlns:xlink="http://www.w3.org/1999/xlink" fill="none" version="1.1" width="13.925996780395508" height="14.001368522644043" viewBox="0 0 13.925996780395508 14.001368522644043"><g transform="matrix(1,0,0,-1,0,28.002737045288086)"><path d="M0.436462,20.89198852264404Q-0.0256742,20.591208522644042,0.00151027,20.071678522644042Q0.0558792,19.552148522644043,0.5452,19.306058522644044L4.35102,17.720118522644043L4.35102,14.903712522644042Q4.35102,14.520899522644044,4.62287,14.274806522644043Q4.86753,14.001368522644043,5.24811,14.001368522644043Q5.65588,14.001368522644043,5.92772,14.329493522644043L7.61316,16.352928522644042L10.984,14.931056522644043Q11.3918,14.794337522644042,11.7452,14.985743522644043Q12.0986,15.204488522644043,12.1802,15.614648522644043L13.92,26.989668522644045Q13.9743,27.536568522644043,13.5394,27.837268522644045Q13.1044,28.13806852264404,12.6151,27.891968522644042L0.436462,20.89198852264404ZM1.85005,20.181058522644044L11.1471,25.51306852264404L1.85005,20.181058522644044L11.1471,25.51306852264404L5.16656,18.813868522644043L5.19374,18.786528522644044L1.85005,20.181058522644044ZM10.9569,16.380278522644044L6.44423,18.26698852264404L10.9569,16.380278522644044L6.44423,18.26698852264404L12.2617,24.802168522644045L10.9569,16.380278522644044Z" fill="#4F46E5" fill-opacity="1" style="mix-blend-mode:passthrough"/></g></svg> 