<svg xmlns="http://www.w3.org/2000/svg" xmlns:xlink="http://www.w3.org/1999/xlink" fill="none" version="1.1" width="16" height="16" viewBox="0 0 16 16"><defs><clipPath id="master_svg0_204_2517"><rect x="0" y="0" width="16" height="16" rx="0"/></clipPath></defs><g clip-path="url(#master_svg0_204_2517)"><g><path d="M8.000029999999999,11.81749L4.2918,14L5.12,9.61734L2,6.58359L6.22007,6.05749L8.000029999999999,2L9.77995,6.05749L14,6.58359L10.88004,9.61734L11.70823,14L8.000029999999999,11.81749Z" fill="#FFFFFF" fill-opacity="1" style="mix-blend-mode:passthrough"/><path d="M8.000029999999999,12.3977L12.4041,14.9897L11.42124,9.788509999999999L15.095,6.21624L10.12371,5.59647L8.000029999999999,0.7553700000000001L5.87632,5.59647L0.90497,6.21624L4.57881,9.788509999999999L3.59592,14.9897L8.000029999999999,12.3977ZM11.01235,13.0103L8.000029999999999,11.23732L4.987690000000001,13.0103L5.6612,9.44617L3.09503,6.95095L6.56383,6.5185L8.00002,3.24463L9.43619,6.5185L12.905,6.95095L10.33885,9.44618L11.01235,13.0103Z" fill-rule="evenodd" fill="#A6A6A6" fill-opacity="1"/></g></g></svg>